<svg width="50" height="50" viewBox="0 0 50 50" fill="none" xmlns="http://www.w3.org/2000/svg">
<path d="M34.0909 0V4.54545H42.2409L33.2136 13.5727C29.7136 10.775 25.2841 9.09091 20.4545 9.09091C9.15909 9.09091 0 18.25 0 29.5455C0 40.8409 9.15909 50 20.4545 50C31.75 50 40.9091 40.8409 40.9091 29.5455C40.9091 24.7159 39.225 20.2864 36.4273 16.7864L45.4545 7.75909V15.9091H50V0H34.0909ZM20.4545 45.4545C11.6818 45.4545 4.54545 38.3182 4.54545 29.5455C4.54545 20.7727 11.6818 13.6364 20.4545 13.6364C29.2273 13.6364 36.3636 20.7727 36.3636 29.5455C36.3636 38.3182 29.2273 45.4545 20.4545 45.4545Z" fill="white" fill-opacity="0.2"/>
</svg>
