<svg width="44" height="58" viewBox="0 0 44 58" fill="none" xmlns="http://www.w3.org/2000/svg">
<path d="M44 21.75C44 9.73917 34.1489 0 22 0C9.85111 0 0 9.73917 0 21.75C0 32.944 8.558 42.1539 19.5556 43.3574V48.3333H12.2222V53.1667H19.5556V58H24.4444V53.1667H31.7778V48.3333H24.4444V43.3574C35.442 42.1539 44 32.944 44 21.75V21.75ZM4.88889 21.75C4.88889 12.4217 12.5644 4.83333 22 4.83333C31.4356 4.83333 39.1111 12.4217 39.1111 21.75C39.1111 31.0783 31.4356 38.6667 22 38.6667C12.5644 38.6667 4.88889 31.0783 4.88889 21.75Z" fill="white" fill-opacity="0.2"/>
</svg>
